<svg width="70" height="70" fill="none" xmlns="http://www.w3.org/2000/svg"><g clip-path="url(#a)" fill="#0082F4"><path d="M67.179 26.063H33.456V5.259a2.771 2.771 0 0 0-2.768-2.768h-8.85a7.508 7.508 0 0 0-5.11-2.003c-1.97 0-3.765.76-5.11 2.003h-8.85A2.771 2.771 0 0 0 0 5.259v37.953a2.771 2.771 0 0 0 2.768 2.767h17.169v20.712a2.824 2.824 0 0 0 2.821 2.82H67.18A2.824 2.824 0 0 0 70 66.692V28.883a2.824 2.824 0 0 0-2.821-2.82ZM38.807 29.43H51.13v21.481l-5.58-2.056a1.685 1.685 0 0 0-1.164 0l-5.58 2.056V29.431ZM16.728 3.856a4.175 4.175 0 0 1 4.163 3.942h-8.326a4.175 4.175 0 0 1 4.163-3.942ZM3.368 5.86H9.51a7.502 7.502 0 0 0-.314 1.939H5.918a1.684 1.684 0 0 0 0 3.367h21.62a1.684 1.684 0 1 0 0-3.367H24.26a7.51 7.51 0 0 0-.313-1.94h6.141v36.754H3.368V5.859Zm63.264 60.285H23.305V45.979h7.383a2.77 2.77 0 0 0 2.768-2.767V29.43h1.983v23.897a1.684 1.684 0 0 0 2.266 1.58l7.264-2.676 7.263 2.676a1.684 1.684 0 0 0 2.266-1.58V29.43h12.134v36.713Z"/><path d="m22.361 22.105-8.203 8.204-3.063-3.064a1.684 1.684 0 0 0-2.382 2.382l4.254 4.254a1.684 1.684 0 0 0 2.382 0l9.394-9.394a1.684 1.684 0 0 0-2.381-2.382Z"/></g><defs><clipPath id="a"><path fill="#fff" d="M0 0h70v70H0z"/></clipPath></defs></svg>