<svg width="57" height="57" fill="none" xmlns="http://www.w3.org/2000/svg"><path d="M39.407 35.253a42.47 42.47 0 0 0 16.708-33.75.82.82 0 0 0-.82-.82 42.344 42.344 0 0 0-26.06 8.961 42.948 42.948 0 0 0-7.67 7.722 4.084 4.084 0 0 1-5.014-.583 5.71 5.71 0 0 0-8.072-.004L.354 24.785a.82.82 0 0 0 0 1.168l4.701 4.643a8.08 8.08 0 0 0 9.169 1.515l-.009.03a.82.82 0 0 0 .212.794l2.366 2.366-5.788 1.227a.82.82 0 0 0-.41 1.382l2.912 2.912a7.278 7.278 0 0 0-3.694-1.033 7.202 7.202 0 0 0-5.17 2.126 7.372 7.372 0 0 0-2.203 5.266.82.82 0 0 0 .8.82l.618.016a7.844 7.844 0 0 0-1.402 5.74.818.818 0 0 0 .806.657h2.24a.82.82 0 0 0 0-1.64H4.01c-.024-1.094.216-3.167 2.203-4.92a.819.819 0 0 0-.522-1.433l-1.553-.039a5.751 5.751 0 0 1 1.662-3.302 5.592 5.592 0 0 1 3.96-1.65h.043c.13 0 .261.008.392.017a3.783 3.783 0 0 0-1.835 2.807l-.47 3.8a.82.82 0 0 0 .914.915l3.801-.47a3.796 3.796 0 0 0 2.807-1.841 5.638 5.638 0 0 1-1.642 4.46.821.821 0 1 0 1.16 1.16 7.307 7.307 0 0 0 2.086-6.08 7.284 7.284 0 0 0-.976-2.843l2.85 2.849a.82.82 0 0 0 1.376-.383l1.398-5.65 2.127 2.127a.82.82 0 0 0 .79.213l.147-.041a8.079 8.079 0 0 0 1.467 9.265l4.643 4.73a.85.85 0 0 0 .584.273.85.85 0 0 0 .583-.273l8.003-8.135a5.726 5.726 0 0 0 0-8.084 4.095 4.095 0 0 1-.6-4.993Zm15.059-32.92a40.76 40.76 0 0 1-.833 7.423 17.049 17.049 0 0 1-6.613-6.584c2.451-.508 4.943-.79 7.446-.84ZM6.207 29.428l-4.11-4.058 7.537-7.427a4.07 4.07 0 0 1 5.756 0 5.73 5.73 0 0 0 4.577 1.641 42.529 42.529 0 0 0-4.999 10.078 6.43 6.43 0 0 1-8.76-.234Zm8.012 15.884a2.162 2.162 0 0 1-1.817 1.559l-2.756.341.342-2.755a2.181 2.181 0 0 1 1.61-1.832 2.167 2.167 0 0 1 2.622 2.688v-.001Zm4.802-1.296-6.197-6.197 5.353-1.135 2.13 2.13-1.286 5.202Zm5.593-3.214-8.69-8.69c.146-.516.303-1.028.47-1.537l.015-.014-.008-.008A41.208 41.208 0 0 1 41.84 4.61a40.05 40.05 0 0 1 3.52-1.056 18.69 18.69 0 0 0 7.894 7.862C49.744 25.418 38.955 36.83 24.614 40.802Zm14.229 6.357-7.423 7.533-4.059-4.11a6.429 6.429 0 0 1-.14-8.863 42.162 42.162 0 0 0 9.984-4.896 5.73 5.73 0 0 0 1.642 4.576 4.076 4.076 0 0 1-.005 5.76Z" fill="#0082F4"/></svg>